# xmcd CD database file
#
# Track frame offsets:
#	150
#	16395
#	30812
#	46785
#	59952
#	74660
#	88460
#	108020
#	128145
#	141642
#	160485
#	179887
#	190822
#	203337
#	220370
#	231712
#	245577
#	263060
#
# Disc length: 3799 seconds
#
# Revision: 0
# Processed by: cddbd v1.5.2PL0 Copyright (c) Steve Scherf et al.
# Submitted via: CDex 1.50
#
DISCID=1a0ed512
DTITLE=Lake City Stompers - Halle Hallelujah
DYEAR=1900
DGENRE=Jazz
TTITLE0=When you grow too old to dream
TTITLE1=Heart of my heart
TTITLE2=Just as I am
TTITLE3=Ce mossieu qui parle
TTITLE4=Beale street blues
TTITLE5=Jerry's Boogie
TTITLE6=Bluebells Goddbye
TTITLE7=Si tu vois ma mere
TTITLE8=Shine
TTITLE9=Bugle boy march
TTITLE10=Black and blue
TTITLE11=Madamme becassin
TTITLE12=All the way
TTITLE13=Tell me your dreams
TTITLE14=Down by the riverside
TTITLE15=Careless Love
TTITLE16=Trogs Blue3s
TTITLE17=Halle Hallelujah
EXTD=
EXTT0=
EXTT1=
EXTT2=
EXTT3=
EXTT4=
EXTT5=
EXTT6=
EXTT7=
EXTT8=
EXTT9=
EXTT10=
EXTT11=
EXTT12=
EXTT13=
EXTT14=
EXTT15=
EXTT16=
EXTT17=
PLAYORDER=
